<svg width="100" height="32" viewBox="0 0 100 32" fill="none" xmlns="http://www.w3.org/2000/svg">
<path d="M16.9693 4.91617C17.0896 4.78887 17.1837 4.63913 17.2461 4.4755C17.3085 4.31186 17.3381 4.13753 17.3331 3.96246C17.3282 3.78739 17.2888 3.61501 17.2172 3.45516C17.1457 3.29531 17.0433 3.15113 16.916 3.03084C16.7887 2.91055 16.639 2.8165 16.4753 2.75408C16.3117 2.69166 16.1374 2.66208 15.9623 2.66704C15.7872 2.67199 15.6148 2.71138 15.455 2.78295C15.2951 2.85452 15.151 2.95687 15.0307 3.08417L3.69733 15.0842C3.46329 15.3317 3.33288 15.6595 3.33288 16.0002C3.33288 16.3409 3.46329 16.6686 3.69733 16.9162L15.0307 28.9175C15.1502 29.0476 15.2943 29.1526 15.4548 29.2265C15.6152 29.3004 15.7887 29.3417 15.9652 29.348C16.1418 29.3543 16.3178 29.3254 16.4831 29.2631C16.6483 29.2007 16.7996 29.1062 16.928 28.9849C17.0564 28.8636 17.1595 28.7181 17.2312 28.5566C17.3029 28.3952 17.3417 28.2211 17.3456 28.0445C17.3494 27.8679 17.3182 27.6923 17.2536 27.5279C17.189 27.3635 17.0924 27.2136 16.9693 27.0868L6.5 16.0002L16.9693 4.91617Z" fill="black"/>
<path d="M83.0307 27.0838C82.9104 27.2111 82.8163 27.3609 82.7539 27.5245C82.6915 27.6881 82.6619 27.8625 82.6669 28.0375C82.6718 28.2126 82.7112 28.385 82.7828 28.5448C82.8544 28.7047 82.9567 28.8489 83.084 28.9692C83.2113 29.0895 83.361 29.1835 83.5247 29.2459C83.6883 29.3083 83.8626 29.3379 84.0377 29.333C84.2128 29.328 84.3852 29.2886 84.545 29.2171C84.7049 29.1455 84.849 29.0431 84.9693 28.9158L96.3027 16.9158C96.5367 16.6683 96.6671 16.3405 96.6671 15.9998C96.6671 15.6591 96.5367 15.3314 96.3027 15.0838L84.9693 3.0825C84.8498 2.95241 84.7057 2.84737 84.5452 2.77347C84.3848 2.69957 84.2113 2.65829 84.0348 2.65202C83.8582 2.64575 83.6822 2.67461 83.517 2.73694C83.3517 2.79927 83.2004 2.89381 83.072 3.01509C82.9436 3.13636 82.8405 3.28194 82.7688 3.44338C82.6971 3.60481 82.6583 3.77888 82.6544 3.95548C82.6506 4.13207 82.6818 4.30767 82.7464 4.47208C82.811 4.63648 82.9076 4.78641 83.0307 4.91316L93.5 15.9998L83.0307 27.0838Z" fill="black"/>
</svg>
