<svg width="80" height="80" viewBox="0 0 80 80" fill="none" xmlns="http://www.w3.org/2000/svg">
<circle opacity="0.6" cx="40.1628" cy="39.938" r="39.8086" fill="#02A063"/>
<path d="M26.8937 27.9954V26.6685C26.5417 26.6685 26.2042 26.8083 25.9554 27.0571C25.7065 27.306 25.5667 27.6435 25.5667 27.9954H26.8937ZM41.4902 27.9954H42.8171C42.8171 27.6435 42.6773 27.306 42.4285 27.0571C42.1796 26.8083 41.8421 26.6685 41.4902 26.6685V27.9954ZM41.4902 35.9571V34.6302C41.1382 34.6302 40.8007 34.77 40.5519 35.0188C40.303 35.2677 40.1632 35.6052 40.1632 35.9571H41.4902ZM26.8937 29.3224H41.4902V26.6685H26.8937V29.3224ZM40.1632 27.9954V49.2267H42.8171V27.9954H40.1632ZM28.2206 46.5728V27.9954H25.5667V46.5728H28.2206ZM41.4902 37.2841H48.1249V34.6302H41.4902V37.2841ZM52.1058 41.2649V46.5728H54.7597V41.2649H52.1058ZM42.8171 49.2267V35.9571H40.1632V49.2267H42.8171ZM49.0631 50.1648C48.8142 50.4136 48.4768 50.5533 48.1249 50.5533C47.7731 50.5533 47.4356 50.4136 47.1868 50.1648L45.3105 52.0411C46.057 52.7874 47.0693 53.2067 48.1249 53.2067C49.1805 53.2067 50.1929 52.7874 50.9394 52.0411L49.0631 50.1648ZM47.1868 48.2885C47.4356 48.0397 47.7731 47.9 48.1249 47.9C48.4768 47.9 48.8142 48.0397 49.0631 48.2885L50.9394 46.4122C50.1929 45.6659 49.1805 45.2467 48.1249 45.2467C47.0693 45.2467 46.057 45.6659 45.3105 46.4122L47.1868 48.2885ZM33.1396 50.1648C32.8908 50.4136 32.5533 50.5533 32.2015 50.5533C31.8496 50.5533 31.5122 50.4136 31.2633 50.1648L29.387 52.0411C30.1335 52.7874 31.1459 53.2067 32.2015 53.2067C33.2571 53.2067 34.2694 52.7874 35.0159 52.0411L33.1396 50.1648ZM31.2633 48.2885C31.5122 48.0397 31.8496 47.9 32.2015 47.9C32.5533 47.9 32.8908 48.0397 33.1396 48.2885L35.0159 46.4122C34.2694 45.6659 33.2571 45.2467 32.2015 45.2467C31.1459 45.2467 30.1335 45.6659 29.387 46.4122L31.2633 48.2885ZM49.0631 48.2885C49.3232 48.5473 49.4519 48.8856 49.4519 49.2267H52.1058C52.1058 48.2102 51.717 47.1885 50.9394 46.4122L49.0631 48.2885ZM49.4519 49.2267C49.4523 49.401 49.4181 49.5736 49.3514 49.7347C49.2846 49.8957 49.1867 50.0419 49.0631 50.1648L50.9394 52.0411C51.3094 51.6718 51.6029 51.2331 51.8031 50.7501C52.0032 50.2672 52.1061 49.7495 52.1058 49.2267H49.4519ZM45.471 47.8997H41.4902V50.5536H45.471V47.8997ZM47.1868 50.1648C47.0632 50.0419 46.9652 49.8957 46.8985 49.7347C46.8317 49.5736 46.7976 49.401 46.798 49.2267H44.1441C44.1441 50.2431 44.5329 51.2649 45.3105 52.0411L47.1868 50.1648ZM46.798 49.2267C46.7973 49.0523 46.8313 48.8796 46.898 48.7185C46.9648 48.5574 47.0629 48.4113 47.1868 48.2885L45.3105 46.4122C44.9404 46.7815 44.6469 47.2202 44.4468 47.7032C44.2466 48.1862 44.1437 48.7039 44.1441 49.2267H46.798ZM31.2633 50.1648C31.1397 50.0419 31.0417 49.8957 30.975 49.7347C30.9083 49.5736 30.8741 49.401 30.8745 49.2267H28.2206C28.2206 50.2431 28.6094 51.2649 29.387 52.0411L31.2633 50.1648ZM30.8745 49.2267C30.8738 49.0523 30.9079 48.8796 30.9746 48.7185C31.0414 48.5574 31.1395 48.4113 31.2633 48.2885L29.387 46.4122C29.017 46.7815 28.7235 47.2202 28.5233 47.7032C28.3232 48.1862 28.2203 48.7039 28.2206 49.2267H30.8745ZM41.4902 47.8997H34.8554V50.5536H41.4902V47.8997ZM33.1396 48.2885C33.3997 48.5473 33.5284 48.8856 33.5284 49.2267H36.1823C36.1823 48.2102 35.7935 47.1885 35.0159 46.4122L33.1396 48.2885ZM33.5284 49.2267C33.5288 49.401 33.4947 49.5736 33.4279 49.7347C33.3612 49.8957 33.2632 50.0419 33.1396 50.1648L35.0159 52.0411C35.386 51.6718 35.6795 51.2331 35.8796 50.7501C36.0798 50.2672 36.1827 49.7495 36.1823 49.2267H33.5284ZM52.1058 46.5728C52.1058 46.9247 51.966 47.2622 51.7171 47.5111C51.4683 47.7599 51.1308 47.8997 50.7788 47.8997V50.5536C51.8346 50.5536 52.8472 50.1342 53.5937 49.3877C54.3403 48.6411 54.7597 47.6286 54.7597 46.5728H52.1058ZM48.1249 37.2841C49.1807 37.2841 50.1933 37.7035 50.9398 38.4501C51.6864 39.1966 52.1058 40.2092 52.1058 41.2649H54.7597C54.7597 40.3937 54.5881 39.5309 54.2547 38.7259C53.9212 37.921 53.4325 37.1896 52.8164 36.5735C52.2003 35.9574 51.4689 35.4686 50.6639 35.1352C49.859 34.8018 48.9962 34.6302 48.1249 34.6302V37.2841ZM25.5667 46.5728C25.5667 47.6286 25.9861 48.6411 26.7327 49.3877C27.4792 50.1342 28.4918 50.5536 29.5476 50.5536V47.8997C29.1956 47.8997 28.8581 47.7599 28.6093 47.5111C28.3604 47.2622 28.2206 46.9247 28.2206 46.5728H25.5667Z" fill="white"/>
</svg>
