<svg width="81" height="81" viewBox="0 0 81 81" fill="none" xmlns="http://www.w3.org/2000/svg">
<circle opacity="0.6" cx="40.6628" cy="40.2539" r="39.8086" fill="#02A063"/>
<g clip-path="url(#clip0_538_32)">
<path d="M56.5863 48.2157L53.7997 34.8798C53.4016 33.4865 52.0083 32.2922 50.4159 32.2922H46.6341V29.9037C46.6341 27.9133 45.0418 26.3209 43.0513 26.3209H38.2743C36.2839 26.3209 34.6915 27.9133 34.6915 29.9037V32.2922H30.9097C29.3174 32.2922 27.9241 33.4865 27.526 34.8798L24.7394 48.2157C24.3413 50.2061 25.9336 52.1965 28.1231 52.1965H53.0035C55.392 52.1965 56.9844 50.2061 56.5863 48.2157ZM36.682 29.9037C36.682 29.1075 37.4781 28.3114 38.2743 28.3114H43.0513C43.8475 28.3114 44.6437 29.1075 44.6437 29.9037V32.2922H36.682V29.9037ZM46.6341 44.2348H42.6533V48.2157H38.6724V44.2348H34.6915V40.2539H38.6724V36.2731H42.6533V40.2539H46.6341V44.2348Z" fill="white"/>
</g>
<defs>
<clipPath id="clip0_538_32">
<rect width="31.8469" height="31.8469" fill="white" transform="translate(24.7393 24.3304)"/>
</clipPath>
</defs>
</svg>
