<svg width="81" height="81" viewBox="0 0 81 81" fill="none" xmlns="http://www.w3.org/2000/svg">
<circle opacity="0.6" cx="40.6626" cy="40.2539" r="39.8086" fill="#02A063"/>
<path d="M40.7954 48.9455L40.6627 49.0782L40.5167 48.9455C34.2137 43.2264 30.0471 39.4445 30.0471 35.6096C30.0471 32.9557 32.0375 30.9653 34.6914 30.9653C36.7349 30.9653 38.7253 32.2923 39.4286 34.0969H41.8968C42.6 32.2923 44.5905 30.9653 46.634 30.9653C49.2879 30.9653 51.2783 32.9557 51.2783 35.6096C51.2783 39.4445 47.1117 43.2264 40.7954 48.9455ZM46.634 28.3114C44.3251 28.3114 42.1091 29.3862 40.6627 31.0715C39.2163 29.3862 37.0003 28.3114 34.6914 28.3114C30.6044 28.3114 27.3932 31.5094 27.3932 35.6096C27.3932 40.6123 31.9048 44.7126 38.7386 50.9094L40.6627 52.661L42.5868 50.9094C49.4206 44.7126 53.9322 40.6123 53.9322 35.6096C53.9322 31.5094 50.721 28.3114 46.634 28.3114Z" fill="white"/>
</svg>
