<svg width="32" height="33" viewBox="0 0 32 33" fill="none" xmlns="http://www.w3.org/2000/svg">
<g clip-path="url(#clip0_593_87)">
<path d="M24.5 0.603027H7.5C3.35786 0.603027 0 3.96089 0 8.10303V25.103C0 29.2452 3.35786 32.603 7.5 32.603H24.5C28.6421 32.603 32 29.2452 32 25.103V8.10303C32 3.96089 28.6421 0.603027 24.5 0.603027Z" fill="url(#paint0_radial_593_87)"/>
<path d="M24.5 0.603027H7.5C3.35786 0.603027 0 3.96089 0 8.10303V25.103C0 29.2452 3.35786 32.603 7.5 32.603H24.5C28.6421 32.603 32 29.2452 32 25.103V8.10303C32 3.96089 28.6421 0.603027 24.5 0.603027Z" fill="url(#paint1_radial_593_87)"/>
<path d="M16.0011 4.10303C12.6064 4.10303 12.1803 4.1179 10.847 4.17853C9.51625 4.23953 8.60787 4.45015 7.81313 4.75928C6.99088 5.07853 6.2935 5.50565 5.59875 6.20065C4.90338 6.89553 4.47625 7.5929 4.156 8.41478C3.846 9.20978 3.63512 10.1185 3.57525 11.4487C3.51562 12.782 3.5 13.2083 3.5 16.6032C3.5 19.998 3.515 20.4228 3.5755 21.756C3.63675 23.0868 3.84738 23.9952 4.15625 24.7899C4.47575 25.6122 4.90288 26.3095 5.59788 27.0043C6.2925 27.6997 6.98988 28.1278 7.8115 28.447C8.60687 28.7562 9.51537 28.9668 10.8459 29.0278C12.1792 29.0884 12.605 29.1033 15.9996 29.1033C19.3948 29.1033 19.8195 29.0884 21.1528 29.0278C22.4835 28.9668 23.3929 28.7562 24.1882 28.447C25.0101 28.1278 25.7065 27.6997 26.401 27.0043C27.0964 26.3095 27.5234 25.6122 27.8438 24.7903C28.151 23.9952 28.362 23.0865 28.4245 21.7563C28.4844 20.423 28.5 19.998 28.5 16.6032C28.5 13.2083 28.4844 12.7823 28.4245 11.4489C28.362 10.1182 28.151 9.2099 27.8438 8.41515C27.5234 7.5929 27.0964 6.89553 26.401 6.20065C25.7057 5.5054 25.0104 5.07828 24.1875 4.7594C23.3906 4.45015 22.4817 4.2394 21.151 4.17853C19.8176 4.1179 19.3931 4.10303 15.9972 4.10303H16.0011ZM14.8798 6.35565C15.2126 6.35515 15.584 6.35565 16.0011 6.35565C19.3388 6.35565 19.7342 6.36765 21.0522 6.42753C22.271 6.48328 22.9325 6.6869 23.3731 6.85803C23.9565 7.08453 24.3724 7.3554 24.8096 7.79303C25.2471 8.23053 25.5179 8.64715 25.745 9.23053C25.9161 9.67053 26.12 10.332 26.1755 11.5508C26.2354 12.8685 26.2484 13.2643 26.2484 16.6003C26.2484 19.9363 26.2354 20.3321 26.1755 21.6498C26.1198 22.8685 25.9161 23.53 25.745 23.9701C25.5185 24.5535 25.2471 24.9689 24.8096 25.4062C24.3721 25.8437 23.9568 26.1144 23.3731 26.341C22.933 26.5129 22.271 26.716 21.0522 26.7718C19.7345 26.8317 19.3388 26.8447 16.0011 26.8447C12.6634 26.8447 12.2677 26.8317 10.9501 26.7718C9.73137 26.7155 9.06987 26.5119 8.62887 26.3408C8.04562 26.1142 7.62887 25.8434 7.19137 25.4059C6.75387 24.9684 6.48312 24.5528 6.256 23.9692C6.08488 23.529 5.881 22.8675 5.8255 21.6488C5.76562 20.331 5.75362 19.9353 5.75362 16.5972C5.75362 13.2592 5.76562 12.8654 5.8255 11.5477C5.88125 10.3289 6.08488 9.6674 6.256 9.22678C6.48263 8.6434 6.75388 8.22678 7.1915 7.78928C7.629 7.35178 8.04562 7.0809 8.629 6.8539C9.06962 6.68203 9.73137 6.4789 10.9501 6.4229C12.1032 6.37078 12.5501 6.35515 14.8798 6.35253V6.35565ZM22.6736 8.43115C21.8455 8.43115 21.1736 9.1024 21.1736 9.93065C21.1736 10.7588 21.8455 11.4307 22.6736 11.4307C23.5018 11.4307 24.1736 10.7588 24.1736 9.93065C24.1736 9.10253 23.5018 8.43065 22.6736 8.43065V8.43115ZM16.0011 10.1838C12.4561 10.1838 9.58187 13.058 9.58187 16.6032C9.58187 20.1483 12.4561 23.0212 16.0011 23.0212C19.5462 23.0212 22.4195 20.1483 22.4195 16.6032C22.4195 13.0582 19.546 10.1838 16.0009 10.1838H16.0011ZM16.0011 12.4364C18.3022 12.4364 20.1679 14.3018 20.1679 16.6032C20.1679 18.9043 18.3022 20.7699 16.0011 20.7699C13.6999 20.7699 11.8345 18.9043 11.8345 16.6032C11.8345 14.3018 13.6999 12.4364 16.0011 12.4364Z" fill="white"/>
</g>
<defs>
<radialGradient id="paint0_radial_593_87" cx="0" cy="0" r="1" gradientUnits="userSpaceOnUse" gradientTransform="translate(8.5 35.0677) rotate(-90) scale(31.7144 29.4969)">
<stop stop-color="#FFDD55"/>
<stop offset="0.1" stop-color="#FFDD55"/>
<stop offset="0.5" stop-color="#FF543E"/>
<stop offset="1" stop-color="#C837AB"/>
</radialGradient>
<radialGradient id="paint1_radial_593_87" cx="0" cy="0" r="1" gradientUnits="userSpaceOnUse" gradientTransform="translate(-5.36012 2.90815) rotate(78.681) scale(14.1765 58.436)">
<stop stop-color="#3771C8"/>
<stop offset="0.128" stop-color="#3771C8"/>
<stop offset="1" stop-color="#6600FF" stop-opacity="0"/>
</radialGradient>
<clipPath id="clip0_593_87">
<rect width="32" height="32" fill="white" transform="translate(0 0.603027)"/>
</clipPath>
</defs>
</svg>
