<svg width="32" height="33" viewBox="0 0 32 33" fill="none" xmlns="http://www.w3.org/2000/svg">
<path d="M29 1.35314H3C2.41008 1.34714 1.84187 1.5754 1.42005 1.98785C0.998227 2.4003 0.757253 2.96323 0.75 3.55314V29.6581C0.758564 30.2472 1.00012 30.8088 1.42179 31.2202C1.84347 31.6316 2.41093 31.8592 3 31.8531H29C29.59 31.8578 30.1578 31.6288 30.5794 31.2161C31.001 30.8034 31.2421 30.2406 31.25 29.6506V3.54564C31.2395 2.95746 30.9972 2.39721 30.5759 1.98666C30.1546 1.5761 29.5883 1.34844 29 1.35314Z" fill="#0076B2"/>
<path d="M5.265 12.7856H9.7925V27.3531H5.265V12.7856ZM7.53 5.53564C8.04928 5.53564 8.5569 5.68966 8.98863 5.97821C9.42036 6.26676 9.75682 6.67688 9.95542 7.15668C10.154 7.63648 10.2059 8.16441 10.1044 8.67368C10.0029 9.18294 9.75263 9.65067 9.38527 10.0177C9.01791 10.3847 8.54994 10.6345 8.04058 10.7355C7.53121 10.8365 7.00333 10.7842 6.52372 10.5851C6.04411 10.386 5.63431 10.0492 5.34618 9.6172C5.05804 9.18519 4.90451 8.67743 4.905 8.15814C4.90566 7.46238 5.18252 6.79535 5.67473 6.30361C6.16694 5.81186 6.83424 5.53564 7.53 5.53564ZM12.6325 12.7856H16.9725V14.7856H17.0325C17.6375 13.6406 19.1125 12.4331 21.315 12.4331C25.9 12.4231 26.75 15.4406 26.75 19.3531V27.3531H22.2225V20.2656C22.2225 18.5781 22.1925 16.4056 19.87 16.4056C17.5475 16.4056 17.1525 18.2456 17.1525 20.1556V27.3531H12.6325V12.7856Z" fill="white"/>
</svg>
