<svg width="81" height="80" viewBox="0 0 81 80" fill="none" xmlns="http://www.w3.org/2000/svg">
<circle opacity="0.6" cx="40.6627" cy="40.0958" r="39.8086" fill="#02A063"/>
<g clip-path="url(#clip0_538_28)">
<path d="M40.6625 26.8263C47.9913 26.8263 53.9321 32.7671 53.9321 40.0958C53.9321 47.4246 47.9913 53.3654 40.6625 53.3654C33.3338 53.3654 27.393 47.4246 27.393 40.0958C27.393 32.7671 33.3338 26.8263 40.6625 26.8263ZM40.6625 29.4802C37.8471 29.4802 35.147 30.5986 33.1562 32.5894C31.1653 34.5803 30.0469 37.2804 30.0469 40.0958C30.0469 42.9113 31.1653 45.6114 33.1562 47.6022C35.147 49.593 37.8471 50.7115 40.6625 50.7115C43.478 50.7115 46.1781 49.593 48.1689 47.6022C50.1597 45.6114 51.2782 42.9113 51.2782 40.0958C51.2782 37.2804 50.1597 34.5803 48.1689 32.5894C46.1781 30.5986 43.478 29.4802 40.6625 29.4802ZM40.6625 32.1341C40.9876 32.1342 41.3013 32.2535 41.5441 32.4694C41.787 32.6854 41.9422 32.983 41.9802 33.3058L41.9895 33.4611V39.5465L45.5816 43.1385C45.8195 43.3773 45.9577 43.6978 45.968 44.0347C45.9783 44.3717 45.8599 44.7 45.637 44.9529C45.414 45.2057 45.1031 45.3642 44.7675 45.3962C44.4319 45.4282 44.0967 45.3312 43.83 45.125L43.7052 45.0148L39.7244 41.034C39.5181 40.8276 39.3857 40.5589 39.3475 40.2697L39.3356 40.0958V33.4611C39.3356 33.1091 39.4754 32.7716 39.7242 32.5228C39.9731 32.2739 40.3106 32.1341 40.6625 32.1341Z" fill="white"/>
</g>
<defs>
<clipPath id="clip0_538_28">
<rect width="31.8469" height="31.8469" fill="white" transform="translate(24.7393 24.1724)"/>
</clipPath>
</defs>
</svg>
