<svg width="83" height="15" viewBox="0 0 83 15" fill="none" xmlns="http://www.w3.org/2000/svg">
<path d="M3.33717 13.1916L4.26816 9.16683L1.14576 6.4598L5.27076 6.10173L6.87493 2.30615L8.4791 6.10173L12.6041 6.4598L9.4817 9.16683L10.4127 13.1916L6.87493 11.0575L3.33717 13.1916Z" fill="#F8AC3B"/>
<path d="M20.5247 13.1916L21.4557 9.16683L18.3333 6.4598L22.4583 6.10173L24.0624 2.30615L25.6666 6.10173L29.7916 6.4598L26.6692 9.16683L27.6002 13.1916L24.0624 11.0575L20.5247 13.1916Z" fill="#F8AC3B"/>
<path d="M37.7122 13.1916L38.6432 9.16683L35.5208 6.4598L39.6458 6.10173L41.2499 2.30615L42.8541 6.10173L46.9791 6.4598L43.8567 9.16683L44.7877 13.1916L41.2499 11.0575L37.7122 13.1916Z" fill="#F8AC3B"/>
<path d="M54.8997 13.1916L55.8307 9.16683L52.7083 6.4598L56.8333 6.10173L58.4374 2.30615L60.0416 6.10173L64.1666 6.4598L61.0442 9.16683L61.9752 13.1916L58.4374 11.0575L54.8997 13.1916Z" fill="#F8AC3B"/>
<path d="M72.0872 13.1916L73.0182 9.16683L69.8958 6.4598L74.0208 6.10173L75.6249 2.30615L77.2291 6.10173L81.3541 6.4598L78.2317 9.16683L79.1627 13.1916L75.6249 11.0575L72.0872 13.1916Z" fill="#F8AC3B"/>
</svg>
