<svg width="32" height="33" viewBox="0 0 32 33" fill="none" xmlns="http://www.w3.org/2000/svg">
<g clip-path="url(#clip0_593_92)">
<path d="M0.677557 16.4116C0.676812 19.1002 1.37932 21.7254 2.71514 24.0394L0.549805 31.9454L8.6406 29.8239C10.8784 31.0422 13.3857 31.6805 15.9336 31.6807H15.9403C24.3515 31.6807 31.1984 24.8363 31.202 16.4236C31.2036 12.3471 29.6175 8.51379 26.7357 5.62982C23.8545 2.7461 20.0226 1.15713 15.9397 1.15527C7.52754 1.15527 0.681154 7.9993 0.677681 16.4116" fill="url(#paint0_linear_593_92)"/>
<path d="M0.132713 16.4066C0.131845 19.1919 0.859535 21.9111 2.24298 24.3078L0 32.4972L8.3809 30.2998C10.6901 31.5588 13.29 32.2226 15.9356 32.2236H15.9424C24.6554 32.2236 31.7482 25.133 31.7519 16.4192C31.7534 12.1962 30.1103 8.22511 27.1256 5.23782C24.1405 2.2509 20.1715 0.604764 15.9424 0.603027C7.22803 0.603027 0.136186 7.69264 0.132713 16.4066ZM5.12385 23.8951L4.81091 23.3983C3.49544 21.3067 2.80112 18.8895 2.80211 16.4076C2.80484 9.16477 8.69929 3.27218 15.9474 3.27218C19.4575 3.27366 22.7562 4.64197 25.2373 7.12458C27.7183 9.60743 29.0835 12.9079 29.0827 16.4182C29.0794 23.661 23.1849 29.5543 15.9424 29.5543H15.9372C13.579 29.5531 11.2662 28.9198 9.24924 27.723L8.76924 27.4384L3.79585 28.7423L5.12385 23.8951Z" fill="url(#paint1_linear_593_92)"/>
<path d="M11.991 9.79964C11.6951 9.14191 11.3837 9.12864 11.1022 9.1171C10.8718 9.10718 10.6083 9.10792 10.3451 9.10792C10.0817 9.10792 9.65368 9.20702 9.29188 9.60206C8.92971 9.99747 7.90918 10.953 7.90918 12.8964C7.90918 14.84 9.32475 16.7182 9.52208 16.982C9.71966 17.2453 12.2549 21.3612 16.27 22.9446C19.6069 24.2604 20.286 23.9987 21.0102 23.9327C21.7345 23.867 23.3474 22.9774 23.6765 22.055C24.0058 21.1327 24.0058 20.3422 23.9071 20.1769C23.8083 20.0124 23.5449 19.9135 23.1499 19.716C22.7547 19.5185 20.8126 18.5628 20.4506 18.431C20.0884 18.2992 19.8251 18.2335 19.5616 18.629C19.2982 19.024 18.5417 19.9135 18.3112 20.1769C18.0808 20.441 17.8503 20.4739 17.4553 20.2763C17.0601 20.0781 15.7879 19.6615 14.2785 18.3159C13.1042 17.2688 12.3114 15.9758 12.081 15.5802C11.8505 15.1853 12.0563 14.9712 12.2544 14.7744C12.4318 14.5974 12.6495 14.3131 12.8472 14.0826C13.0442 13.8519 13.1099 13.6873 13.2416 13.4238C13.3735 13.1601 13.3075 12.9294 13.2089 12.7319C13.1099 12.5343 12.3423 10.5807 11.991 9.79964Z" fill="white"/>
</g>
<defs>
<linearGradient id="paint0_linear_593_92" x1="1533.16" y1="3080.16" x2="1533.16" y2="1.15527" gradientUnits="userSpaceOnUse">
<stop stop-color="#1FAF38"/>
<stop offset="1" stop-color="#60D669"/>
</linearGradient>
<linearGradient id="paint1_linear_593_92" x1="1587.6" y1="3190.02" x2="1587.6" y2="0.603027" gradientUnits="userSpaceOnUse">
<stop stop-color="#F9F9F9"/>
<stop offset="1" stop-color="white"/>
</linearGradient>
<clipPath id="clip0_593_92">
<rect width="31.7519" height="32" fill="white" transform="translate(0 0.603027)"/>
</clipPath>
</defs>
</svg>
